<mxfile host="app.diagrams.net" modified="2021-02-04T23:27:17.482Z" agent="5.0 (Windows NT 10.0; Win64; x64) AppleWebKit/537.36 (KHTML, like Gecko) Chrome/88.0.4324.146 Safari/537.36" etag="eBzJ1GnBt2Ux9hXnmPWH" version="13.0.6" type="github">
  <diagram id="mXsGqnm0mKl6NUJ0uIiQ" name="Page-1">
    <mxGraphModel dx="2031" dy="1007" grid="1" gridSize="10" guides="1" tooltips="1" connect="1" arrows="1" fold="1" page="1" pageScale="1" pageWidth="850" pageHeight="1100" math="0" shadow="0">
      <root>
        <mxCell id="0" />
        <mxCell id="1" parent="0" />
        <mxCell id="wPzvUPC_USkvsbAR1Ahk-11" style="edgeStyle=orthogonalEdgeStyle;rounded=0;orthogonalLoop=1;jettySize=auto;html=1;exitX=0.5;exitY=1;exitDx=0;exitDy=0;endArrow=none;endFill=0;" parent="1" source="wPzvUPC_USkvsbAR1Ahk-1" target="wPzvUPC_USkvsbAR1Ahk-8" edge="1">
          <mxGeometry relative="1" as="geometry" />
        </mxCell>
        <mxCell id="wPzvUPC_USkvsbAR1Ahk-34" style="edgeStyle=orthogonalEdgeStyle;rounded=0;orthogonalLoop=1;jettySize=auto;html=1;exitX=0;exitY=1;exitDx=0;exitDy=0;entryX=1;entryY=0.5;entryDx=0;entryDy=0;endArrow=none;endFill=0;" parent="1" source="wPzvUPC_USkvsbAR1Ahk-1" target="wPzvUPC_USkvsbAR1Ahk-28" edge="1">
          <mxGeometry relative="1" as="geometry" />
        </mxCell>
        <mxCell id="wPzvUPC_USkvsbAR1Ahk-1" value="MOVIE" style="rounded=0;whiteSpace=wrap;html=1;" parent="1" vertex="1">
          <mxGeometry x="610" y="160" width="120" height="60" as="geometry" />
        </mxCell>
        <mxCell id="wPzvUPC_USkvsbAR1Ahk-5" style="edgeStyle=orthogonalEdgeStyle;rounded=0;orthogonalLoop=1;jettySize=auto;html=1;exitX=0.5;exitY=1;exitDx=0;exitDy=0;entryX=0.25;entryY=0;entryDx=0;entryDy=0;endArrow=none;endFill=0;" parent="1" source="wPzvUPC_USkvsbAR1Ahk-2" target="wPzvUPC_USkvsbAR1Ahk-1" edge="1">
          <mxGeometry relative="1" as="geometry" />
        </mxCell>
        <mxCell id="wPzvUPC_USkvsbAR1Ahk-2" value="&lt;u&gt;Title&lt;/u&gt;" style="ellipse;whiteSpace=wrap;html=1;" parent="1" vertex="1">
          <mxGeometry x="490" y="30" width="80" height="50" as="geometry" />
        </mxCell>
        <mxCell id="wPzvUPC_USkvsbAR1Ahk-6" style="edgeStyle=orthogonalEdgeStyle;rounded=0;orthogonalLoop=1;jettySize=auto;html=1;exitX=0.5;exitY=1;exitDx=0;exitDy=0;endArrow=none;endFill=0;" parent="1" source="wPzvUPC_USkvsbAR1Ahk-3" target="wPzvUPC_USkvsbAR1Ahk-1" edge="1">
          <mxGeometry relative="1" as="geometry" />
        </mxCell>
        <mxCell id="wPzvUPC_USkvsbAR1Ahk-3" value="&lt;u&gt;Year_of_Release&lt;/u&gt;" style="ellipse;whiteSpace=wrap;html=1;" parent="1" vertex="1">
          <mxGeometry x="630" y="30" width="100" height="50" as="geometry" />
        </mxCell>
        <mxCell id="wPzvUPC_USkvsbAR1Ahk-7" style="edgeStyle=orthogonalEdgeStyle;rounded=0;orthogonalLoop=1;jettySize=auto;html=1;exitX=0.5;exitY=1;exitDx=0;exitDy=0;entryX=0.75;entryY=0;entryDx=0;entryDy=0;endArrow=none;endFill=0;" parent="1" source="wPzvUPC_USkvsbAR1Ahk-4" target="wPzvUPC_USkvsbAR1Ahk-1" edge="1">
          <mxGeometry relative="1" as="geometry" />
        </mxCell>
        <mxCell id="wPzvUPC_USkvsbAR1Ahk-4" value="Length" style="ellipse;whiteSpace=wrap;html=1;" parent="1" vertex="1">
          <mxGeometry x="740" y="80" width="80" height="50" as="geometry" />
        </mxCell>
        <mxCell id="wPzvUPC_USkvsbAR1Ahk-12" style="edgeStyle=orthogonalEdgeStyle;rounded=0;orthogonalLoop=1;jettySize=auto;html=1;exitX=0.5;exitY=1;exitDx=0;exitDy=0;entryX=0.5;entryY=0;entryDx=0;entryDy=0;endArrow=none;endFill=0;" parent="1" source="wPzvUPC_USkvsbAR1Ahk-8" target="wPzvUPC_USkvsbAR1Ahk-10" edge="1">
          <mxGeometry relative="1" as="geometry" />
        </mxCell>
        <mxCell id="wPzvUPC_USkvsbAR1Ahk-8" value="Produces" style="rhombus;whiteSpace=wrap;html=1;" parent="1" vertex="1">
          <mxGeometry x="615" y="310" width="110" height="80" as="geometry" />
        </mxCell>
        <mxCell id="wPzvUPC_USkvsbAR1Ahk-10" value="Production_Company" style="rounded=0;whiteSpace=wrap;html=1;" parent="1" vertex="1">
          <mxGeometry x="610" y="500" width="120" height="60" as="geometry" />
        </mxCell>
        <mxCell id="wPzvUPC_USkvsbAR1Ahk-22" style="edgeStyle=orthogonalEdgeStyle;rounded=0;orthogonalLoop=1;jettySize=auto;html=1;exitX=1;exitY=0.5;exitDx=0;exitDy=0;entryX=0;entryY=0.5;entryDx=0;entryDy=0;endArrow=none;endFill=0;" parent="1" source="wPzvUPC_USkvsbAR1Ahk-13" target="wPzvUPC_USkvsbAR1Ahk-1" edge="1">
          <mxGeometry relative="1" as="geometry">
            <Array as="points">
              <mxPoint x="610" y="175" />
            </Array>
          </mxGeometry>
        </mxCell>
        <mxCell id="wPzvUPC_USkvsbAR1Ahk-13" value="Genre" style="ellipse;whiteSpace=wrap;html=1;" parent="1" vertex="1">
          <mxGeometry x="480" y="150" width="80" height="50" as="geometry" />
        </mxCell>
        <mxCell id="wPzvUPC_USkvsbAR1Ahk-26" style="edgeStyle=orthogonalEdgeStyle;rounded=0;orthogonalLoop=1;jettySize=auto;html=1;exitX=0;exitY=0.5;exitDx=0;exitDy=0;entryX=1;entryY=0.5;entryDx=0;entryDy=0;endArrow=none;endFill=0;" parent="1" source="wPzvUPC_USkvsbAR1Ahk-15" target="wPzvUPC_USkvsbAR1Ahk-1" edge="1">
          <mxGeometry relative="1" as="geometry" />
        </mxCell>
        <mxCell id="wPzvUPC_USkvsbAR1Ahk-15" value="Plot_outline" style="ellipse;whiteSpace=wrap;html=1;" parent="1" vertex="1">
          <mxGeometry x="760" y="165" width="80" height="50" as="geometry" />
        </mxCell>
        <mxCell id="wPzvUPC_USkvsbAR1Ahk-32" style="edgeStyle=orthogonalEdgeStyle;rounded=0;orthogonalLoop=1;jettySize=auto;html=1;exitX=0.5;exitY=0;exitDx=0;exitDy=0;entryX=0;entryY=0.5;entryDx=0;entryDy=0;endArrow=none;endFill=0;" parent="1" source="wPzvUPC_USkvsbAR1Ahk-23" target="wPzvUPC_USkvsbAR1Ahk-29" edge="1">
          <mxGeometry relative="1" as="geometry" />
        </mxCell>
        <mxCell id="wPzvUPC_USkvsbAR1Ahk-23" value="Actor" style="rounded=0;whiteSpace=wrap;html=1;" parent="1" vertex="1">
          <mxGeometry x="110" y="200" width="120" height="60" as="geometry" />
        </mxCell>
        <mxCell id="wPzvUPC_USkvsbAR1Ahk-25" value="Director" style="rounded=0;whiteSpace=wrap;html=1;" parent="1" vertex="1">
          <mxGeometry x="90" y="470" width="120" height="60" as="geometry" />
        </mxCell>
        <mxCell id="wPzvUPC_USkvsbAR1Ahk-27" value="Quote" style="rounded=0;whiteSpace=wrap;html=1;" parent="1" vertex="1">
          <mxGeometry x="365" y="590" width="120" height="60" as="geometry" />
        </mxCell>
        <mxCell id="wPzvUPC_USkvsbAR1Ahk-41" style="edgeStyle=orthogonalEdgeStyle;rounded=0;orthogonalLoop=1;jettySize=auto;html=1;exitX=0;exitY=0.5;exitDx=0;exitDy=0;entryX=0.925;entryY=0.033;entryDx=0;entryDy=0;entryPerimeter=0;endArrow=none;endFill=0;" parent="1" source="wPzvUPC_USkvsbAR1Ahk-28" target="wPzvUPC_USkvsbAR1Ahk-25" edge="1">
          <mxGeometry relative="1" as="geometry" />
        </mxCell>
        <mxCell id="wPzvUPC_USkvsbAR1Ahk-28" value="Directs" style="rhombus;whiteSpace=wrap;html=1;" parent="1" vertex="1">
          <mxGeometry x="290" y="260" width="110" height="80" as="geometry" />
        </mxCell>
        <mxCell id="wPzvUPC_USkvsbAR1Ahk-33" style="edgeStyle=orthogonalEdgeStyle;rounded=0;orthogonalLoop=1;jettySize=auto;html=1;exitX=1;exitY=0.5;exitDx=0;exitDy=0;entryX=0;entryY=0;entryDx=0;entryDy=0;endArrow=none;endFill=0;" parent="1" source="wPzvUPC_USkvsbAR1Ahk-29" target="wPzvUPC_USkvsbAR1Ahk-1" edge="1">
          <mxGeometry relative="1" as="geometry" />
        </mxCell>
        <mxCell id="wPzvUPC_USkvsbAR1Ahk-29" value="Acts" style="rhombus;whiteSpace=wrap;html=1;" parent="1" vertex="1">
          <mxGeometry x="290" y="90" width="110" height="80" as="geometry" />
        </mxCell>
        <mxCell id="wPzvUPC_USkvsbAR1Ahk-31" style="edgeStyle=orthogonalEdgeStyle;rounded=0;orthogonalLoop=1;jettySize=auto;html=1;exitX=0.5;exitY=1;exitDx=0;exitDy=0;entryX=0.5;entryY=0;entryDx=0;entryDy=0;endArrow=none;endFill=0;" parent="1" source="wPzvUPC_USkvsbAR1Ahk-30" target="wPzvUPC_USkvsbAR1Ahk-27" edge="1">
          <mxGeometry relative="1" as="geometry" />
        </mxCell>
        <mxCell id="wPzvUPC_USkvsbAR1Ahk-36" style="edgeStyle=orthogonalEdgeStyle;rounded=0;orthogonalLoop=1;jettySize=auto;html=1;exitX=0.5;exitY=0;exitDx=0;exitDy=0;entryX=0;entryY=0.75;entryDx=0;entryDy=0;endArrow=none;endFill=0;" parent="1" source="wPzvUPC_USkvsbAR1Ahk-30" target="wPzvUPC_USkvsbAR1Ahk-1" edge="1">
          <mxGeometry relative="1" as="geometry">
            <Array as="points">
              <mxPoint x="440" y="450" />
              <mxPoint x="440" y="220" />
              <mxPoint x="610" y="220" />
            </Array>
          </mxGeometry>
        </mxCell>
        <mxCell id="wPzvUPC_USkvsbAR1Ahk-30" value="Quotable_lines" style="rhombus;whiteSpace=wrap;html=1;" parent="1" vertex="1">
          <mxGeometry x="370" y="450" width="110" height="80" as="geometry" />
        </mxCell>
        <mxCell id="wPzvUPC_USkvsbAR1Ahk-39" style="edgeStyle=orthogonalEdgeStyle;rounded=0;orthogonalLoop=1;jettySize=auto;html=1;exitX=1;exitY=0.5;exitDx=0;exitDy=0;entryX=0;entryY=0.5;entryDx=0;entryDy=0;endArrow=none;endFill=0;" parent="1" source="wPzvUPC_USkvsbAR1Ahk-38" target="wPzvUPC_USkvsbAR1Ahk-27" edge="1">
          <mxGeometry relative="1" as="geometry" />
        </mxCell>
        <mxCell id="wPzvUPC_USkvsbAR1Ahk-40" style="edgeStyle=orthogonalEdgeStyle;rounded=0;orthogonalLoop=1;jettySize=auto;html=1;exitX=0.5;exitY=0;exitDx=0;exitDy=0;entryX=0.442;entryY=1.05;entryDx=0;entryDy=0;entryPerimeter=0;endArrow=none;endFill=0;" parent="1" source="wPzvUPC_USkvsbAR1Ahk-38" target="wPzvUPC_USkvsbAR1Ahk-23" edge="1">
          <mxGeometry relative="1" as="geometry" />
        </mxCell>
        <mxCell id="wPzvUPC_USkvsbAR1Ahk-38" value="Speaks" style="rhombus;whiteSpace=wrap;html=1;" parent="1" vertex="1">
          <mxGeometry x="210" y="580" width="110" height="80" as="geometry" />
        </mxCell>
        <mxCell id="wPzvUPC_USkvsbAR1Ahk-44" style="edgeStyle=orthogonalEdgeStyle;rounded=0;orthogonalLoop=1;jettySize=auto;html=1;exitX=0.5;exitY=0;exitDx=0;exitDy=0;entryX=0;entryY=0.5;entryDx=0;entryDy=0;endArrow=none;endFill=0;" parent="1" source="wPzvUPC_USkvsbAR1Ahk-42" target="wPzvUPC_USkvsbAR1Ahk-25" edge="1">
          <mxGeometry relative="1" as="geometry" />
        </mxCell>
        <mxCell id="wPzvUPC_USkvsbAR1Ahk-42" value="&lt;u&gt;Name&lt;/u&gt;" style="ellipse;whiteSpace=wrap;html=1;" parent="1" vertex="1">
          <mxGeometry x="10" y="550" width="80" height="50" as="geometry" />
        </mxCell>
        <mxCell id="wPzvUPC_USkvsbAR1Ahk-45" style="edgeStyle=orthogonalEdgeStyle;rounded=0;orthogonalLoop=1;jettySize=auto;html=1;exitX=0.5;exitY=0;exitDx=0;exitDy=0;entryX=0.583;entryY=1.033;entryDx=0;entryDy=0;entryPerimeter=0;endArrow=none;endFill=0;" parent="1" source="wPzvUPC_USkvsbAR1Ahk-43" target="wPzvUPC_USkvsbAR1Ahk-25" edge="1">
          <mxGeometry relative="1" as="geometry" />
        </mxCell>
        <mxCell id="wPzvUPC_USkvsbAR1Ahk-43" value="&lt;u&gt;DOB&lt;/u&gt;" style="ellipse;whiteSpace=wrap;html=1;" parent="1" vertex="1">
          <mxGeometry x="120" y="550" width="80" height="50" as="geometry" />
        </mxCell>
        <mxCell id="wPzvUPC_USkvsbAR1Ahk-48" style="edgeStyle=orthogonalEdgeStyle;rounded=0;orthogonalLoop=1;jettySize=auto;html=1;exitX=1;exitY=0.5;exitDx=0;exitDy=0;entryX=0.1;entryY=0;entryDx=0;entryDy=0;entryPerimeter=0;endArrow=none;endFill=0;" parent="1" source="wPzvUPC_USkvsbAR1Ahk-46" target="wPzvUPC_USkvsbAR1Ahk-23" edge="1">
          <mxGeometry relative="1" as="geometry" />
        </mxCell>
        <mxCell id="wPzvUPC_USkvsbAR1Ahk-46" value="&lt;u&gt;DOB&lt;/u&gt;" style="ellipse;whiteSpace=wrap;html=1;" parent="1" vertex="1">
          <mxGeometry x="10" y="130" width="80" height="50" as="geometry" />
        </mxCell>
        <mxCell id="wPzvUPC_USkvsbAR1Ahk-49" style="edgeStyle=orthogonalEdgeStyle;rounded=0;orthogonalLoop=1;jettySize=auto;html=1;exitX=1;exitY=0.5;exitDx=0;exitDy=0;entryX=0.183;entryY=1;entryDx=0;entryDy=0;entryPerimeter=0;endArrow=none;endFill=0;" parent="1" source="wPzvUPC_USkvsbAR1Ahk-47" target="wPzvUPC_USkvsbAR1Ahk-23" edge="1">
          <mxGeometry relative="1" as="geometry" />
        </mxCell>
        <mxCell id="wPzvUPC_USkvsbAR1Ahk-47" value="&lt;u&gt;Name&lt;/u&gt;" style="ellipse;whiteSpace=wrap;html=1;" parent="1" vertex="1">
          <mxGeometry x="10" y="275" width="80" height="50" as="geometry" />
        </mxCell>
        <mxCell id="wPzvUPC_USkvsbAR1Ahk-53" style="edgeStyle=orthogonalEdgeStyle;rounded=0;orthogonalLoop=1;jettySize=auto;html=1;exitX=0.5;exitY=0;exitDx=0;exitDy=0;entryX=0.25;entryY=1;entryDx=0;entryDy=0;endArrow=none;endFill=0;" parent="1" source="wPzvUPC_USkvsbAR1Ahk-50" target="wPzvUPC_USkvsbAR1Ahk-10" edge="1">
          <mxGeometry relative="1" as="geometry" />
        </mxCell>
        <mxCell id="wPzvUPC_USkvsbAR1Ahk-50" value="&lt;u&gt;Name&lt;/u&gt;" style="ellipse;whiteSpace=wrap;html=1;" parent="1" vertex="1">
          <mxGeometry x="600" y="595" width="80" height="50" as="geometry" />
        </mxCell>
        <mxCell id="wPzvUPC_USkvsbAR1Ahk-52" style="edgeStyle=orthogonalEdgeStyle;rounded=0;orthogonalLoop=1;jettySize=auto;html=1;exitX=0.5;exitY=0;exitDx=0;exitDy=0;entryX=1;entryY=0.5;entryDx=0;entryDy=0;endArrow=none;endFill=0;" parent="1" source="wPzvUPC_USkvsbAR1Ahk-51" target="wPzvUPC_USkvsbAR1Ahk-10" edge="1">
          <mxGeometry relative="1" as="geometry" />
        </mxCell>
        <mxCell id="wPzvUPC_USkvsbAR1Ahk-51" value="Address" style="ellipse;whiteSpace=wrap;html=1;" parent="1" vertex="1">
          <mxGeometry x="725" y="595" width="80" height="50" as="geometry" />
        </mxCell>
        <mxCell id="wPzvUPC_USkvsbAR1Ahk-61" style="edgeStyle=orthogonalEdgeStyle;rounded=0;orthogonalLoop=1;jettySize=auto;html=1;exitX=0.5;exitY=0;exitDx=0;exitDy=0;entryX=0;entryY=1;entryDx=0;entryDy=0;endArrow=none;endFill=0;" parent="1" source="wPzvUPC_USkvsbAR1Ahk-54" target="wPzvUPC_USkvsbAR1Ahk-27" edge="1">
          <mxGeometry relative="1" as="geometry" />
        </mxCell>
        <mxCell id="wPzvUPC_USkvsbAR1Ahk-54" value="&lt;u&gt;Actor_Name&lt;/u&gt;" style="ellipse;whiteSpace=wrap;html=1;" parent="1" vertex="1">
          <mxGeometry x="260" y="700" width="80" height="50" as="geometry" />
        </mxCell>
        <mxCell id="wPzvUPC_USkvsbAR1Ahk-60" style="edgeStyle=orthogonalEdgeStyle;rounded=0;orthogonalLoop=1;jettySize=auto;html=1;exitX=0.5;exitY=0;exitDx=0;exitDy=0;entryX=0.375;entryY=1;entryDx=0;entryDy=0;entryPerimeter=0;endArrow=none;endFill=0;" parent="1" source="wPzvUPC_USkvsbAR1Ahk-55" target="wPzvUPC_USkvsbAR1Ahk-27" edge="1">
          <mxGeometry relative="1" as="geometry" />
        </mxCell>
        <mxCell id="wPzvUPC_USkvsbAR1Ahk-55" value="&lt;u&gt;Actor_DOB&lt;/u&gt;" style="ellipse;whiteSpace=wrap;html=1;" parent="1" vertex="1">
          <mxGeometry x="360" y="700" width="80" height="50" as="geometry" />
        </mxCell>
        <mxCell id="wPzvUPC_USkvsbAR1Ahk-59" style="edgeStyle=orthogonalEdgeStyle;rounded=0;orthogonalLoop=1;jettySize=auto;html=1;exitX=0.5;exitY=0;exitDx=0;exitDy=0;endArrow=none;endFill=0;entryX=0.942;entryY=1.033;entryDx=0;entryDy=0;entryPerimeter=0;" parent="1" source="wPzvUPC_USkvsbAR1Ahk-56" target="wPzvUPC_USkvsbAR1Ahk-27" edge="1">
          <mxGeometry relative="1" as="geometry">
            <mxPoint x="480" y="660" as="targetPoint" />
          </mxGeometry>
        </mxCell>
        <mxCell id="wPzvUPC_USkvsbAR1Ahk-56" value="&lt;u&gt;Movie_name&lt;/u&gt;" style="ellipse;whiteSpace=wrap;html=1;" parent="1" vertex="1">
          <mxGeometry x="460" y="700" width="80" height="50" as="geometry" />
        </mxCell>
        <mxCell id="wPzvUPC_USkvsbAR1Ahk-58" style="edgeStyle=orthogonalEdgeStyle;rounded=0;orthogonalLoop=1;jettySize=auto;html=1;exitX=0.5;exitY=0;exitDx=0;exitDy=0;entryX=1;entryY=0.5;entryDx=0;entryDy=0;endArrow=none;endFill=0;" parent="1" source="wPzvUPC_USkvsbAR1Ahk-57" target="wPzvUPC_USkvsbAR1Ahk-27" edge="1">
          <mxGeometry relative="1" as="geometry">
            <Array as="points">
              <mxPoint x="450" y="770" />
              <mxPoint x="450" y="650" />
              <mxPoint x="485" y="650" />
            </Array>
          </mxGeometry>
        </mxCell>
        <mxCell id="wPzvUPC_USkvsbAR1Ahk-57" value="&lt;u&gt;Movie&lt;br&gt;Year_of_release&lt;br&gt;&lt;/u&gt;" style="ellipse;whiteSpace=wrap;html=1;" parent="1" vertex="1">
          <mxGeometry x="380" y="770" width="130" height="50" as="geometry" />
        </mxCell>
        <mxCell id="wPzvUPC_USkvsbAR1Ahk-63" style="edgeStyle=orthogonalEdgeStyle;rounded=0;orthogonalLoop=1;jettySize=auto;html=1;exitX=0;exitY=0.5;exitDx=0;exitDy=0;entryX=0.817;entryY=-0.017;entryDx=0;entryDy=0;entryPerimeter=0;endArrow=none;endFill=0;" parent="1" source="wPzvUPC_USkvsbAR1Ahk-62" target="wPzvUPC_USkvsbAR1Ahk-25" edge="1">
          <mxGeometry relative="1" as="geometry" />
        </mxCell>
        <mxCell id="wPzvUPC_USkvsbAR1Ahk-64" style="edgeStyle=orthogonalEdgeStyle;rounded=0;orthogonalLoop=1;jettySize=auto;html=1;exitX=1;exitY=0.5;exitDx=0;exitDy=0;endArrow=none;endFill=0;" parent="1" source="wPzvUPC_USkvsbAR1Ahk-62" target="wPzvUPC_USkvsbAR1Ahk-1" edge="1">
          <mxGeometry relative="1" as="geometry">
            <Array as="points">
              <mxPoint x="400" y="320" />
              <mxPoint x="626" y="320" />
            </Array>
          </mxGeometry>
        </mxCell>
        <mxCell id="wPzvUPC_USkvsbAR1Ahk-62" value="Acts" style="rhombus;whiteSpace=wrap;html=1;" parent="1" vertex="1">
          <mxGeometry x="290" y="340" width="110" height="80" as="geometry" />
        </mxCell>
        <mxCell id="wPzvUPC_USkvsbAR1Ahk-67" style="edgeStyle=orthogonalEdgeStyle;rounded=0;orthogonalLoop=1;jettySize=auto;html=1;exitX=1;exitY=0.5;exitDx=0;exitDy=0;entryX=0;entryY=0.5;entryDx=0;entryDy=0;endArrow=none;endFill=0;" parent="1" source="wPzvUPC_USkvsbAR1Ahk-66" target="wPzvUPC_USkvsbAR1Ahk-23" edge="1">
          <mxGeometry relative="1" as="geometry" />
        </mxCell>
        <mxCell id="wPzvUPC_USkvsbAR1Ahk-66" value="Role" style="ellipse;whiteSpace=wrap;html=1;" parent="1" vertex="1">
          <mxGeometry x="10" y="205" width="80" height="50" as="geometry" />
        </mxCell>
        <mxCell id="wPzvUPC_USkvsbAR1Ahk-68" value="[0,M]" style="text;html=1;strokeColor=none;fillColor=none;align=center;verticalAlign=middle;whiteSpace=wrap;rounded=0;" parent="1" vertex="1">
          <mxGeometry x="405" y="430" width="40" height="20" as="geometry" />
        </mxCell>
        <mxCell id="wPzvUPC_USkvsbAR1Ahk-69" value="[1,1]" style="text;html=1;strokeColor=none;fillColor=none;align=center;verticalAlign=middle;whiteSpace=wrap;rounded=0;" parent="1" vertex="1">
          <mxGeometry x="425" y="530" width="40" height="20" as="geometry" />
        </mxCell>
        <mxCell id="wPzvUPC_USkvsbAR1Ahk-70" value="[1,M]" style="text;html=1;strokeColor=none;fillColor=none;align=center;verticalAlign=middle;whiteSpace=wrap;rounded=0;" parent="1" vertex="1">
          <mxGeometry x="670" y="390" width="40" height="20" as="geometry" />
        </mxCell>
        <mxCell id="wPzvUPC_USkvsbAR1Ahk-71" value="[1,M]" style="text;html=1;strokeColor=none;fillColor=none;align=center;verticalAlign=middle;whiteSpace=wrap;rounded=0;" parent="1" vertex="1">
          <mxGeometry x="670" y="290" width="40" height="20" as="geometry" />
        </mxCell>
        <mxCell id="wPzvUPC_USkvsbAR1Ahk-72" value="[0,M]" style="text;html=1;strokeColor=none;fillColor=none;align=center;verticalAlign=middle;whiteSpace=wrap;rounded=0;" parent="1" vertex="1">
          <mxGeometry x="260" y="380" width="40" height="20" as="geometry" />
        </mxCell>
        <mxCell id="wPzvUPC_USkvsbAR1Ahk-73" value="[0,M]" style="text;html=1;strokeColor=none;fillColor=none;align=center;verticalAlign=middle;whiteSpace=wrap;rounded=0;" parent="1" vertex="1">
          <mxGeometry x="365" y="340" width="40" height="20" as="geometry" />
        </mxCell>
        <mxCell id="wPzvUPC_USkvsbAR1Ahk-74" value="[1,M]" style="text;html=1;strokeColor=none;fillColor=none;align=center;verticalAlign=middle;whiteSpace=wrap;rounded=0;" parent="1" vertex="1">
          <mxGeometry x="250" y="130" width="40" height="20" as="geometry" />
        </mxCell>
        <mxCell id="wPzvUPC_USkvsbAR1Ahk-75" value="[1,M]" style="text;html=1;strokeColor=none;fillColor=none;align=center;verticalAlign=middle;whiteSpace=wrap;rounded=0;" parent="1" vertex="1">
          <mxGeometry x="400" y="130" width="40" height="20" as="geometry" />
        </mxCell>
        <mxCell id="wPzvUPC_USkvsbAR1Ahk-76" value="[1,M]" style="text;html=1;strokeColor=none;fillColor=none;align=center;verticalAlign=middle;whiteSpace=wrap;rounded=0;" parent="1" vertex="1">
          <mxGeometry x="250" y="280" width="40" height="20" as="geometry" />
        </mxCell>
        <mxCell id="wPzvUPC_USkvsbAR1Ahk-77" value="[1,M]" style="text;html=1;strokeColor=none;fillColor=none;align=center;verticalAlign=middle;whiteSpace=wrap;rounded=0;" parent="1" vertex="1">
          <mxGeometry x="400" y="280" width="40" height="20" as="geometry" />
        </mxCell>
        <mxCell id="wPzvUPC_USkvsbAR1Ahk-78" value="[0,M]" style="text;html=1;strokeColor=none;fillColor=none;align=center;verticalAlign=middle;whiteSpace=wrap;rounded=0;" parent="1" vertex="1">
          <mxGeometry x="260" y="560" width="40" height="20" as="geometry" />
        </mxCell>
        <mxCell id="wPzvUPC_USkvsbAR1Ahk-79" value="[1,1]" style="text;html=1;strokeColor=none;fillColor=none;align=center;verticalAlign=middle;whiteSpace=wrap;rounded=0;" parent="1" vertex="1">
          <mxGeometry x="310" y="600" width="40" height="20" as="geometry" />
        </mxCell>
      </root>
    </mxGraphModel>
  </diagram>
</mxfile>
